<svg xmlns="http://www.w3.org/2000/svg" width="28" height="28" viewBox="0 0 28 28">
  <g id="Сгруппировать_54" data-name="Сгруппировать 54" transform="translate(-438.379 -466.879)">
    <path id="Линия_5" data-name="Линия 5" d="M0,26a1.994,1.994,0,0,1-1.414-.586,2,2,0,0,1,0-2.828l24-24a2,2,0,0,1,2.828,0,2,2,0,0,1,0,2.828l-24,24A1.994,1.994,0,0,1,0,26Z" transform="translate(440.379 468.879)"/>
    <path id="Линия_6" data-name="Линия 6" d="M24,26a1.994,1.994,0,0,1-1.414-.586l-24-24a2,2,0,0,1,0-2.828,2,2,0,0,1,2.828,0l24,24A2,2,0,0,1,24,26Z" transform="translate(440.379 468.879)"/>
  </g>
</svg>
