<svg xmlns="http://www.w3.org/2000/svg" width="20.571" height="24" viewBox="0 0 20.571 24">
  <path id="_211855_locked_icon" data-name="211855_locked_icon" d="M65.2,56H83.371a1.2,1.2,0,0,0,1.2-1.184V43.464a1.187,1.187,0,0,0-1.2-1.179H82.214V40.63a9.448,9.448,0,0,0-2.282-6.182A7.79,7.79,0,0,0,74.291,32H74.28a7.806,7.806,0,0,0-5.641,2.443,9.448,9.448,0,0,0-2.282,6.182v1.661H65.2A1.19,1.19,0,0,0,64,43.464V54.816A1.191,1.191,0,0,0,65.2,56Zm4-15.37a6.708,6.708,0,0,1,1.505-4.3h0v-.016a4.97,4.97,0,0,1,3.579-1.58h.011a4.97,4.97,0,0,1,3.579,1.58v.011l-.005.005a6.678,6.678,0,0,1,1.505,4.3v1.655H69.2Z" transform="translate(-64 -32)"/>
</svg>
